<svg width="19" height="21" viewBox="0 0 19 21" fill="none" xmlns="http://www.w3.org/2000/svg">
<path d="M16.5533 7.14279C16.756 7.14279 16.9399 7.23123 17.0852 7.38064C17.2206 7.54022 17.2888 7.73843 17.2691 7.94782C17.2691 8.01693 16.7273 14.8678 16.4179 17.7514C16.2242 19.521 15.0834 20.5954 13.3722 20.6249C12.0564 20.6544 10.7703 20.6645 9.50397 20.6645C8.15954 20.6645 6.84477 20.6544 5.56855 20.6249C3.9147 20.5852 2.77292 19.4915 2.58905 17.7514C2.27073 14.8576 1.73889 8.01693 1.72901 7.94782C1.71912 7.73843 1.78634 7.54022 1.92276 7.38064C2.05721 7.23123 2.25096 7.14279 2.4546 7.14279H16.5533ZM11.5988 0.33548C12.4974 0.33548 13.3001 0.962624 13.5324 1.85709L13.6985 2.5991C13.8329 3.20388 14.3569 3.6318 14.9599 3.6318H17.9236C18.319 3.6318 18.6482 3.96011 18.6482 4.37787V4.76412C18.6482 5.17171 18.319 5.51019 17.9236 5.51019H1.07765C0.681239 5.51019 0.352051 5.17171 0.352051 4.76412V4.37787C0.352051 3.96011 0.681239 3.6318 1.07765 3.6318H4.04133C4.64336 3.6318 5.16729 3.20388 5.30272 2.60011L5.45793 1.9069C5.69913 0.962624 6.49294 0.33548 7.40142 0.33548H11.5988Z" fill="white"/>
</svg>
