<svg width="18" height="19" viewBox="0 0 18 19" fill="none" xmlns="http://www.w3.org/2000/svg">
<path d="M17.4918 1.02378C17.0417 0.561738 16.3754 0.389603 15.7541 0.570798L1.2672 4.78357C0.611729 4.96567 0.147138 5.48842 0.0219871 6.1525C-0.105865 6.82835 0.340718 7.68631 0.924156 8.04507L5.45391 10.8291C5.9185 11.1145 6.51815 11.0429 6.9026 10.6552L12.0896 5.43587C12.3507 5.16408 12.7829 5.16408 13.044 5.43587C13.3051 5.6986 13.3051 6.12441 13.044 6.3962L7.84799 11.6164C7.46263 12.0033 7.3906 12.6057 7.67422 13.0732L10.442 17.6484C10.7661 18.192 11.3243 18.5 11.9366 18.5C12.0086 18.5 12.0896 18.5 12.1617 18.4909C12.8639 18.4003 13.4222 17.9202 13.6293 17.2407L17.924 2.77231C18.1131 2.15625 17.942 1.48583 17.4918 1.02378Z" fill="white"/>
</svg>
